<svg width="24" height="24" viewBox="0 0 24 24" fill="none" xmlns="http://www.w3.org/2000/svg">
<mask id="mask0_8402_44380" style="mask-type:alpha" maskUnits="userSpaceOnUse" x="0" y="0" width="24" height="24">
<rect width="24" height="24" fill="#D9D9D9"/>
</mask>
<g mask="url(#mask0_8402_44380)">
<path d="M4.99997 8.80787H19V6.30784C19 6.23091 18.9679 6.16038 18.9038 6.09627C18.8397 6.03217 18.7692 6.00012 18.6922 6.00012H5.3077C5.23077 6.00012 5.16024 6.03217 5.09612 6.09627C5.03202 6.16038 4.99997 6.23091 4.99997 6.30784V8.80787ZM5.3077 21.5001C4.80257 21.5001 4.375 21.3251 4.025 20.9751C3.675 20.6251 3.5 20.1975 3.5 19.6924V6.30784C3.5 5.80271 3.675 5.37514 4.025 5.02514C4.375 4.67514 4.80257 4.50014 5.3077 4.50014H6.69232V3.15397C6.69232 2.93475 6.76573 2.75174 6.91253 2.60494C7.05931 2.45816 7.24232 2.38477 7.46155 2.38477C7.68077 2.38477 7.86378 2.45816 8.01058 2.60494C8.15736 2.75174 8.23075 2.93475 8.23075 3.15397V4.50014H15.8077V3.13474C15.8077 2.92192 15.8794 2.74372 16.023 2.60014C16.1666 2.45656 16.3448 2.38477 16.5576 2.38477C16.7704 2.38477 16.9486 2.45656 17.0922 2.60014C17.2358 2.74372 17.3076 2.92192 17.3076 3.13474V4.50014H18.6922C19.1974 4.50014 19.625 4.67514 19.975 5.02514C20.325 5.37514 20.5 5.80271 20.5 6.30784V11.7713C20.2602 11.6661 20.0153 11.5812 19.7654 11.5165C19.5154 11.4517 19.2602 11.4008 19 11.3636V10.3078H4.99997V19.6924C4.99997 19.7693 5.03202 19.8398 5.09612 19.904C5.16024 19.9681 5.23077 20.0001 5.3077 20.0001H11.8096C11.8942 20.277 11.9965 20.5389 12.1164 20.7857C12.2362 21.0325 12.3724 21.2706 12.525 21.5001H5.3077ZM18.1923 22.5001C16.9436 22.5001 15.8814 22.0623 15.0058 21.1866C14.1301 20.311 13.6923 19.2488 13.6923 18.0001C13.6923 16.7514 14.1301 15.6892 15.0058 14.8136C15.8814 13.938 16.9436 13.5001 18.1923 13.5001C19.441 13.5001 20.5032 13.938 21.3788 14.8136C22.2544 15.6892 22.6922 16.7514 22.6922 18.0001C22.6922 19.2488 22.2544 20.311 21.3788 21.1866C20.5032 22.0623 19.441 22.5001 18.1923 22.5001ZM18.6346 17.8193V15.5001C18.6346 15.3796 18.591 15.2758 18.5038 15.1886C18.4167 15.1014 18.3128 15.0578 18.1923 15.0578C18.0718 15.0578 17.9679 15.1014 17.8807 15.1886C17.7936 15.2758 17.75 15.3796 17.75 15.5001V17.804C17.75 17.9245 17.7718 18.0392 17.8154 18.1482C17.859 18.2572 17.9275 18.3584 18.0211 18.452L19.5461 19.977C19.6333 20.0642 19.7356 20.1094 19.8529 20.1126C19.9702 20.1158 20.0756 20.0706 20.1692 19.977C20.2628 19.8834 20.3096 19.7796 20.3096 19.6655C20.3096 19.5514 20.2628 19.4475 20.1692 19.354L18.6346 17.8193Z" fill="white"/>
</g>
</svg>
