<svg width="112" height="100" viewBox="0 0 112 100" fill="none" xmlns="http://www.w3.org/2000/svg">
<path d="M48 97.3684V34.2105C48 33.5131 47.72 32.8419 47.2187 32.3485C46.72 31.8551 46.04 31.5789 45.3333 31.5789H34.6667C33.96 31.5789 33.28 31.8551 32.7813 32.3485C32.28 32.8419 32 33.5131 32 34.2105V97.3684C32 98.0658 32.28 98.7368 32.7813 99.2302C33.28 99.7236 33.96 100 34.6667 100H45.3333C46.04 100 46.72 99.7236 47.2187 99.2302C47.72 98.7368 48 98.0658 48 97.3684Z" fill="#E5E7E8"/>
<path d="M16 97.3697V55.2632C16 53.8105 14.8053 52.6303 13.3333 52.6303H2.66667C1.19467 52.6303 0 53.8105 0 55.2632V97.3697C0 98.8224 1.19467 99.9987 2.66667 99.9987H13.3333C14.8053 99.9987 16 98.8224 16 97.3697Z" fill="#E5E7E8"/>
<path d="M80 55.2632V97.3697C80 98.8224 78.8053 99.9987 77.3333 99.9987H66.6667C65.1947 99.9987 64 98.8224 64 97.3697V55.2632C64 53.8105 65.1947 52.6303 66.6667 52.6303H77.3333C78.8053 52.6303 80 53.8105 80 55.2632Z" fill="#E5E7E8"/>
<path d="M112 97.3684V34.2105C112 33.5131 111.72 32.8419 111.219 32.3485C110.72 31.8551 110.04 31.5789 109.333 31.5789H98.6667C97.96 31.5789 97.28 31.8551 96.7813 32.3485C96.28 32.8419 96 33.5131 96 34.2105V97.3684C96 98.0658 96.28 98.7368 96.7813 99.2302C97.28 99.7236 97.96 100 98.6667 100H109.333C110.04 100 110.72 99.7236 111.219 99.2302C111.72 98.7368 112 98.0658 112 97.3684Z" fill="#E5E7E8"/>
<path fill-rule="evenodd" clip-rule="evenodd" d="M96.2427 9.83421C96.0853 9.21316 96 8.56316 96 7.89474C96 3.53684 99.584 0 104 0C108.416 0 112 3.53684 112 7.89474C112 12.2526 108.416 15.7895 104 15.7895C102.203 15.7895 100.541 15.2026 99.2053 14.2132L79.7573 27.0079C79.9147 27.629 80 28.279 80 28.9474C80 33.3053 76.416 36.8421 72 36.8421C67.584 36.8421 64 33.3053 64 28.9474C64 28.279 64.0853 27.629 64.2427 27.0079L44.7947 14.2132C43.4587 15.2026 41.7973 15.7895 40 15.7895C38.2027 15.7895 36.5413 15.2026 35.2053 14.2132L15.7573 27.0079C15.9147 27.629 16 28.279 16 28.9474C16 33.3053 12.416 36.8421 8 36.8421C3.584 36.8421 0 33.3053 0 28.9474C0 24.5895 3.584 21.0526 8 21.0526C9.79733 21.0526 11.4587 21.6395 12.7947 22.629L32.2427 9.83421C32.0853 9.21316 32 8.56316 32 7.89474C32 3.53684 35.584 0 40 0C44.416 0 48 3.53684 48 7.89474C48 8.56316 47.9147 9.21316 47.7573 9.83421L67.2053 22.629C68.5413 21.6395 70.2027 21.0526 72 21.0526C73.7973 21.0526 75.4587 21.6395 76.7947 22.629L96.2427 9.83421Z" fill="#E5E7E8"/>
</svg>
