<svg width="136" height="124" viewBox="0 0 136 124" fill="none" xmlns="http://www.w3.org/2000/svg">
<path d="M69.8494 101.6C97.8494 101.6 120.549 78.9 120.549 50.8C120.549 22.7 97.8494 0 69.8494 0C41.8494 0 19.1494 22.7 19.1494 50.8C19.1494 78.9 41.8494 101.6 69.8494 101.6Z" fill="#EAEEF9"/>
<path d="M126.35 34.9002C128.614 34.9002 130.45 33.0646 130.45 30.8002C130.45 28.5358 128.614 26.7002 126.35 26.7002C124.086 26.7002 122.25 28.5358 122.25 30.8002C122.25 33.0646 124.086 34.9002 126.35 34.9002Z" fill="#EAEEF9"/>
<path d="M132.35 18.8002C133.896 18.8002 135.15 17.5466 135.15 16.0002C135.15 14.4538 133.896 13.2002 132.35 13.2002C130.803 13.2002 129.55 14.4538 129.55 16.0002C129.55 17.5466 130.803 18.8002 132.35 18.8002Z" fill="#EAEEF9"/>
<path d="M15.6496 37.8002C17.196 37.8002 18.4496 36.5466 18.4496 35.0002C18.4496 33.4538 17.196 32.2002 15.6496 32.2002C14.1032 32.2002 12.8496 33.4538 12.8496 35.0002C12.8496 36.5466 14.1032 37.8002 15.6496 37.8002Z" fill="#EAEEF9"/>
<path d="M87.2496 21.4434C104.512 21.4434 118.437 33.9978 118.437 49.4317C118.437 58.3004 113.834 66.2478 106.584 71.4308V83.0638C106.584 84.6763 104.742 85.4825 103.592 84.5611L93.6943 76.8442C91.6228 77.1897 89.5512 77.4201 87.3646 77.4201C70.102 77.4201 56.1768 64.8656 56.1768 49.4317C56.1768 33.9978 70.102 21.4434 87.2496 21.4434Z" fill="#CBD4E0"/>
<g filter="url(#filter0_d_1786_90366)">
<path d="M56.7526 20.0605C37.5335 20.0605 21.9971 33.9971 21.9971 51.1587C21.9971 61.064 27.1759 69.9328 35.2318 75.5765V88.4765C35.2318 90.2042 37.1882 91.2408 38.5692 90.089L49.6173 81.5658C51.919 82.0265 54.2207 82.2569 56.6375 82.2569C75.8566 82.2569 91.393 68.3203 91.393 51.1587C91.393 33.9971 75.8566 20.0605 56.7526 20.0605Z" fill="url(#paint0_linear_1786_90366)"/>
</g>
<path d="M48.1916 17.1384C48.0528 17.1384 47.914 17.1384 47.7753 17.1384C47.0815 16.8606 46.6652 16.1662 46.8039 15.4719L49.1629 7.8337C49.4404 7.13932 50.1342 6.72269 50.828 6.86157C51.5219 7.13932 51.9381 7.8337 51.7994 8.52808L49.5792 16.1662C49.4404 16.7217 48.8854 17.1384 48.1916 17.1384Z" fill="#B5BCCE"/>
<path d="M42.3636 18.8044C41.8086 18.8044 41.2535 18.3878 40.976 17.8323L37.3682 6.86113C37.0907 6.16676 37.5069 5.3335 38.2008 5.05575C38.8946 4.778 39.7271 5.19463 40.0047 5.889L43.6125 16.8602C43.89 17.5546 43.4737 18.3878 42.7799 18.6656C42.6412 18.8044 42.5024 18.8044 42.3636 18.8044Z" fill="#B5BCCE"/>
<path d="M36.952 21.443C36.5358 21.443 36.2582 21.3041 35.9807 21.0264L31.5403 16.7212C30.9853 16.1657 30.9853 15.3325 31.5403 14.777C32.0954 14.2215 32.9279 14.2215 33.483 14.777L37.9234 19.0821C38.4784 19.6376 38.4784 20.4709 37.9234 21.0264C37.6459 21.3041 37.2296 21.443 36.952 21.443Z" fill="#B5BCCE"/>
<defs>
<filter id="filter0_d_1786_90366" x="-0.00292969" y="9.06055" width="113.396" height="114.515" filterUnits="userSpaceOnUse" color-interpolation-filters="sRGB">
<feFlood flood-opacity="0" result="BackgroundImageFix"/>
<feColorMatrix in="SourceAlpha" type="matrix" values="0 0 0 0 0 0 0 0 0 0 0 0 0 0 0 0 0 0 127 0" result="hardAlpha"/>
<feOffset dy="11"/>
<feGaussianBlur stdDeviation="11"/>
<feColorMatrix type="matrix" values="0 0 0 0 0.397708 0 0 0 0 0.47749 0 0 0 0 0.575 0 0 0 0.27 0"/>
<feBlend mode="normal" in2="BackgroundImageFix" result="effect1_dropShadow_1786_90366"/>
<feBlend mode="normal" in="SourceGraphic" in2="effect1_dropShadow_1786_90366" result="shape"/>
</filter>
<linearGradient id="paint0_linear_1786_90366" x1="56.6724" y1="18.4295" x2="56.6724" y2="91.3357" gradientUnits="userSpaceOnUse">
<stop stop-color="#FDFEFF"/>
<stop offset="0.9964" stop-color="#ECF0F5"/>
</linearGradient>
</defs>
</svg>
