<svg width="25" height="25" viewBox="0 0 25 25" fill="none" xmlns="http://www.w3.org/2000/svg">
<mask id="mask0_8402_44370" style="mask-type:alpha" maskUnits="userSpaceOnUse" x="0" y="0" width="25" height="25">
<rect x="0.478516" y="0.531738" width="24" height="24" fill="#D9D9D9"/>
</mask>
<g mask="url(#mask0_8402_44370)">
<path d="M7.47849 15.2817H14.3728L15.8727 13.7817H7.47849C7.26599 13.7817 7.08787 13.8536 6.94414 13.9974C6.80039 14.1413 6.72852 14.3195 6.72852 14.532C6.72852 14.7446 6.80039 14.9227 6.94414 15.0663C7.08787 15.2099 7.26599 15.2817 7.47849 15.2817ZM7.47849 11.2817H11.4785C11.691 11.2817 11.8691 11.2098 12.0128 11.066C12.1566 10.9222 12.2285 10.744 12.2285 10.5314C12.2285 10.3188 12.1566 10.1407 12.0128 9.99711C11.8691 9.85353 11.691 9.78174 11.4785 9.78174H7.47849C7.26599 9.78174 7.08787 9.85364 6.94414 9.99744C6.80039 10.1413 6.72852 10.3195 6.72852 10.532C6.72852 10.7446 6.80039 10.9227 6.94414 11.0663C7.08787 11.2099 7.26599 11.2817 7.47849 11.2817ZM10.6228 19.0317H4.78622C4.2891 19.0317 3.86354 18.8547 3.50954 18.5007C3.15552 18.1467 2.97852 17.7211 2.97852 17.224V7.83944C2.97852 7.34232 3.15552 6.91676 3.50954 6.56276C3.86354 6.20875 4.2891 6.03174 4.78622 6.03174H20.1708C20.6679 6.03174 21.0934 6.20875 21.4474 6.56276C21.8015 6.91676 21.9785 7.34232 21.9785 7.83944V9.17599H20.4785V7.83944C20.4785 7.74969 20.4496 7.67596 20.3919 7.61826C20.3342 7.56056 20.2605 7.53171 20.1708 7.53171H4.78622C4.69647 7.53171 4.62274 7.56056 4.56504 7.61826C4.50734 7.67596 4.47849 7.74969 4.47849 7.83944V17.224C4.47849 17.3137 4.50734 17.3875 4.56504 17.4452C4.62274 17.5029 4.69647 17.5317 4.78622 17.5317H12.1228L10.6228 19.0317ZM22.7054 12.6586C22.7823 12.7363 22.8207 12.8217 22.8207 12.915C22.8207 13.0082 22.7818 13.0937 22.704 13.1716L21.8631 14.0125L20.5939 12.7433L21.4351 11.9024C21.513 11.8245 21.5986 11.7856 21.6921 11.7856C21.7856 11.7856 21.8708 11.824 21.9477 11.901L22.7054 12.6586ZM21.2823 14.6125L15.1246 20.7701C15.0498 20.8445 14.9657 20.9003 14.8722 20.9374C14.7787 20.9746 14.682 20.9932 14.5823 20.9932H14.017C13.9144 20.9932 13.8247 20.9548 13.7477 20.8778C13.6708 20.8009 13.6323 20.7112 13.6323 20.6086V20.0432C13.6323 19.9435 13.6509 19.8469 13.6881 19.7534C13.7253 19.6599 13.7811 19.5757 13.8554 19.5009L20.0131 13.3433L21.2823 14.6125Z" fill="white"/>
</g>
</svg>
