<svg width="25" height="24" viewBox="0 0 25 24" fill="none" xmlns="http://www.w3.org/2000/svg">
<mask id="mask0_403_56746" style="mask-type:alpha" maskUnits="userSpaceOnUse" x="0" y="0" width="25" height="24">
<rect x="0.400024" width="24" height="24" fill="#D9D9D9"/>
</mask>
<g mask="url(#mask0_403_56746)">
<path d="M6.10776 19.9C5.66404 19.9 5.28517 19.743 4.97114 19.4289C4.65709 19.1149 4.50006 18.736 4.50006 18.2923V5.70774C4.50006 5.26402 4.65709 4.88515 4.97114 4.57111C5.28517 4.25706 5.66404 4.10004 6.10776 4.10004H18.6985C18.8435 4.10004 18.9807 4.12312 19.1099 4.16929C19.2392 4.21544 19.3571 4.268 19.4635 4.32699L18.3231 5.46734C18.3039 5.4481 18.2799 5.43207 18.251 5.41924C18.2222 5.40642 18.1885 5.40001 18.15 5.40001H6.10776C6.01801 5.40001 5.94429 5.42886 5.88659 5.48656C5.82889 5.54426 5.80004 5.61799 5.80004 5.70774V18.2923C5.80004 18.382 5.82889 18.4558 5.88659 18.5135C5.94429 18.5712 6.01801 18.6 6.10776 18.6H18.6923C18.7821 18.6 18.8558 18.5712 18.9135 18.5135C18.9712 18.4558 19 18.382 19 18.2923V12.4192L20.3 11.1193V18.2923C20.3 18.736 20.143 19.1149 19.8289 19.4289C19.5149 19.743 19.136 19.9 18.6923 19.9H6.10776ZM12.4347 14.5962L20.1154 6.94041C20.2539 6.80196 20.4076 6.73274 20.5767 6.73274C20.7457 6.73274 20.8933 6.80196 21.0192 6.94041C21.1513 7.07888 21.2173 7.23209 21.2173 7.40004C21.2173 7.56797 21.1524 7.71709 21.0226 7.84739L13.0043 15.8892C12.8425 16.0515 12.6536 16.1285 12.4375 16.1202C12.2215 16.1119 12.0315 16.0256 11.8674 15.8615L8.01899 12.0132C7.88459 11.8788 7.81578 11.7318 7.81256 11.5721C7.80936 11.4125 7.88019 11.2603 8.02506 11.1154C8.16993 10.9705 8.32474 10.8981 8.48949 10.8981C8.65422 10.8981 8.80782 10.9694 8.95029 11.1118L12.4347 14.5962Z" fill="#E92D47"/>
</g>
</svg>
