<svg width="40" height="40" viewBox="0 0 40 40" fill="none" xmlns="http://www.w3.org/2000/svg">
<path fill-rule="evenodd" clip-rule="evenodd" d="M6.66699 5.83301C6.66699 4.4523 7.78628 3.33301 9.16699 3.33301H25.6315C26.2945 3.33301 26.9304 3.5964 27.3992 4.06524L32.6014 9.26744C33.0703 9.73628 33.3337 10.3722 33.3337 11.0352V34.1663C33.3337 35.5471 32.2144 36.6663 30.8337 36.6663H9.16699C7.78628 36.6663 6.66699 35.5471 6.66699 34.1663V5.83301ZM31.667 11.6663H25.8337C25.3734 11.6663 25.0003 11.2932 25.0003 10.833V4.99967H9.16699C8.70675 4.99967 8.33366 5.37277 8.33366 5.83301V34.1663C8.33366 34.6266 8.70675 34.9997 9.16699 34.9997H30.8337C31.2939 34.9997 31.667 34.6266 31.667 34.1663V11.6663Z" fill="#C2C6CE"/>
<path d="M6.66699 15.833H33.3337V25.833H6.66699V15.833Z" fill="#00A651"/>
<path d="M15.4688 21.8828H16.6367C16.6133 22.2656 16.5078 22.6055 16.3203 22.9023C16.1354 23.1992 15.8763 23.431 15.543 23.5977C15.2122 23.7643 14.8138 23.8477 14.3477 23.8477C13.9831 23.8477 13.6562 23.7852 13.3672 23.6602C13.0781 23.5326 12.8307 23.3503 12.625 23.1133C12.4219 22.8763 12.2669 22.5898 12.1602 22.2539C12.0534 21.918 12 21.5417 12 21.125V20.7305C12 20.3138 12.0547 19.9375 12.1641 19.6016C12.276 19.263 12.4349 18.9753 12.6406 18.7383C12.849 18.5013 13.0977 18.319 13.3867 18.1914C13.6758 18.0638 13.9987 18 14.3555 18C14.8294 18 15.2292 18.0859 15.5547 18.2578C15.8828 18.4297 16.1367 18.6667 16.3164 18.9688C16.4987 19.2708 16.6081 19.6146 16.6445 20H15.4727C15.4596 19.7708 15.4141 19.5768 15.3359 19.418C15.2578 19.2565 15.1393 19.1354 14.9805 19.0547C14.8242 18.9714 14.6159 18.9297 14.3555 18.9297C14.1602 18.9297 13.9896 18.9661 13.8438 19.0391C13.6979 19.112 13.5755 19.2227 13.4766 19.3711C13.3776 19.5195 13.3034 19.707 13.2539 19.9336C13.207 20.1576 13.1836 20.4206 13.1836 20.7227V21.125C13.1836 21.4193 13.2057 21.6784 13.25 21.9023C13.2943 22.1237 13.362 22.3112 13.4531 22.4648C13.5469 22.6159 13.6667 22.7305 13.8125 22.8086C13.9609 22.8841 14.1393 22.9219 14.3477 22.9219C14.5924 22.9219 14.7943 22.8828 14.9531 22.8047C15.112 22.7266 15.2331 22.6107 15.3164 22.457C15.4023 22.3034 15.4531 22.112 15.4688 21.8828Z" fill="white"/>
<path d="M20.5172 22.2812C20.5172 22.1797 20.5016 22.0885 20.4703 22.0078C20.4417 21.9245 20.387 21.849 20.3062 21.7812C20.2255 21.7109 20.1122 21.6419 19.9664 21.5742C19.8206 21.5065 19.6318 21.4362 19.4 21.3633C19.1422 21.2799 18.8974 21.1862 18.6656 21.082C18.4365 20.9779 18.2333 20.8568 18.0563 20.7188C17.8818 20.5781 17.7438 20.4154 17.6422 20.2305C17.5432 20.0456 17.4938 19.8307 17.4938 19.5859C17.4938 19.349 17.5458 19.1341 17.65 18.9414C17.7542 18.7461 17.9 18.5794 18.0875 18.4414C18.275 18.3008 18.4964 18.1927 18.7516 18.1172C19.0094 18.0417 19.2919 18.0039 19.5992 18.0039C20.0185 18.0039 20.3844 18.0794 20.6969 18.2305C21.0094 18.3815 21.2516 18.5885 21.4234 18.8516C21.5979 19.1146 21.6852 19.4154 21.6852 19.7539H20.5211C20.5211 19.5872 20.4859 19.4414 20.4156 19.3164C20.3479 19.1888 20.2437 19.0885 20.1031 19.0156C19.9651 18.9427 19.7906 18.9062 19.5797 18.9062C19.3766 18.9062 19.2073 18.9375 19.0719 19C18.9365 19.0599 18.8349 19.1419 18.7672 19.2461C18.6995 19.3477 18.6656 19.4622 18.6656 19.5898C18.6656 19.6862 18.6891 19.7734 18.7359 19.8516C18.7854 19.9297 18.8583 20.0026 18.9547 20.0703C19.051 20.138 19.1695 20.2018 19.3102 20.2617C19.4508 20.3216 19.6135 20.3802 19.7984 20.4375C20.1083 20.5312 20.3805 20.6367 20.6148 20.7539C20.8518 20.8711 21.0497 21.0026 21.2086 21.1484C21.3674 21.2943 21.4872 21.4596 21.568 21.6445C21.6487 21.8294 21.6891 22.0391 21.6891 22.2734C21.6891 22.5208 21.6409 22.7422 21.5445 22.9375C21.4482 23.1328 21.3089 23.2982 21.1266 23.4336C20.9443 23.569 20.7268 23.6719 20.4742 23.7422C20.2216 23.8125 19.9391 23.8477 19.6266 23.8477C19.3453 23.8477 19.068 23.8112 18.7945 23.7383C18.5211 23.6628 18.2724 23.5495 18.0484 23.3984C17.8271 23.2474 17.65 23.0547 17.5172 22.8203C17.3844 22.5859 17.318 22.3086 17.318 21.9883H18.4938C18.4938 22.1654 18.5211 22.3151 18.5758 22.4375C18.6305 22.5599 18.7073 22.6589 18.8063 22.7344C18.9078 22.8099 19.0276 22.8646 19.1656 22.8984C19.3063 22.9323 19.4599 22.9492 19.6266 22.9492C19.8297 22.9492 19.9964 22.9206 20.1266 22.8633C20.2594 22.806 20.357 22.7266 20.4195 22.625C20.4846 22.5234 20.5172 22.4089 20.5172 22.2812Z" fill="white"/>
<path d="M24.6867 22.582L26.0266 18.082H27.3313L25.3508 23.7695H24.4914L24.6867 22.582ZM23.4523 18.082L24.7883 22.582L24.9914 23.7695H24.1242L22.1555 18.082H23.4523Z" fill="white"/>
</svg>
