<svg width="40" height="40" viewBox="0 0 40 40" fill="none" xmlns="http://www.w3.org/2000/svg">
<path fill-rule="evenodd" clip-rule="evenodd" d="M6.66699 5.83301C6.66699 4.4523 7.78628 3.33301 9.16699 3.33301H25.6315C26.2945 3.33301 26.9304 3.5964 27.3992 4.06524L32.6014 9.26744C33.0703 9.73628 33.3337 10.3722 33.3337 11.0352V34.1663C33.3337 35.5471 32.2144 36.6663 30.8337 36.6663H9.16699C7.78628 36.6663 6.66699 35.5471 6.66699 34.1663V5.83301ZM31.667 11.6663H25.8337C25.3734 11.6663 25.0003 11.2932 25.0003 10.833V4.99967H9.16699C8.70675 4.99967 8.33366 5.37277 8.33366 5.83301V34.1663C8.33366 34.6266 8.70675 34.9997 9.16699 34.9997H30.8337C31.2939 34.9997 31.667 34.6266 31.667 34.1663V11.6663Z" fill="#C2C6CE"/>
<path d="M6.66699 15.833H33.3337V25.833H6.66699V15.833Z" fill="#2669EA"/>
<path d="M13.7461 23.7695H12.5078L12.5156 22.8555H13.7461C14.0534 22.8555 14.3125 22.7865 14.5234 22.6484C14.7344 22.5078 14.8932 22.3034 15 22.0352C15.1094 21.7669 15.1641 21.4427 15.1641 21.0625V20.7852C15.1641 20.4935 15.1328 20.237 15.0703 20.0156C15.0104 19.7943 14.9206 19.6081 14.8008 19.457C14.681 19.306 14.5339 19.1927 14.3594 19.1172C14.1849 19.0391 13.9844 19 13.7578 19H12.4844V18.082H13.7578C14.138 18.082 14.4857 18.1471 14.8008 18.2773C15.1185 18.4049 15.3932 18.5885 15.625 18.8281C15.8568 19.0677 16.0352 19.3542 16.1602 19.6875C16.2878 20.0182 16.3516 20.3867 16.3516 20.793V21.0625C16.3516 21.4661 16.2878 21.8346 16.1602 22.168C16.0352 22.5013 15.8568 22.7878 15.625 23.0273C15.3958 23.2643 15.1211 23.4479 14.8008 23.5781C14.4831 23.7057 14.1315 23.7695 13.7461 23.7695ZM13.1719 18.082V23.7695H12V18.082H13.1719Z" fill="white"/>
<path d="M22.025 20.793V21.0625C22.025 21.4948 21.9664 21.8828 21.8492 22.2266C21.732 22.5703 21.5667 22.8633 21.3531 23.1055C21.1396 23.3451 20.8844 23.5286 20.5875 23.6562C20.2932 23.7839 19.9664 23.8477 19.607 23.8477C19.2503 23.8477 18.9234 23.7839 18.6266 23.6562C18.3323 23.5286 18.0771 23.3451 17.8609 23.1055C17.6448 22.8633 17.4768 22.5703 17.357 22.2266C17.2398 21.8828 17.1813 21.4948 17.1813 21.0625V20.793C17.1813 20.3581 17.2398 19.9701 17.357 19.6289C17.4742 19.2852 17.6396 18.9922 17.8531 18.75C18.0693 18.5078 18.3245 18.3229 18.6188 18.1953C18.9156 18.0677 19.2424 18.0039 19.5992 18.0039C19.9586 18.0039 20.2854 18.0677 20.5797 18.1953C20.8766 18.3229 21.1318 18.5078 21.3453 18.75C21.5615 18.9922 21.7281 19.2852 21.8453 19.6289C21.9651 19.9701 22.025 20.3581 22.025 20.793ZM20.8414 21.0625V20.7852C20.8414 20.4831 20.8141 20.2174 20.7594 19.9883C20.7047 19.7591 20.624 19.5664 20.5172 19.4102C20.4104 19.2539 20.2802 19.1367 20.1266 19.0586C19.9729 18.9779 19.7971 18.9375 19.5992 18.9375C19.4013 18.9375 19.2255 18.9779 19.0719 19.0586C18.9208 19.1367 18.7919 19.2539 18.6852 19.4102C18.581 19.5664 18.5016 19.7591 18.4469 19.9883C18.3922 20.2174 18.3648 20.4831 18.3648 20.7852V21.0625C18.3648 21.362 18.3922 21.6276 18.4469 21.8594C18.5016 22.0885 18.5823 22.2826 18.6891 22.4414C18.7958 22.5977 18.926 22.7161 19.0797 22.7969C19.2333 22.8776 19.4091 22.918 19.607 22.918C19.8049 22.918 19.9807 22.8776 20.1344 22.7969C20.288 22.7161 20.4169 22.5977 20.5211 22.4414C20.6253 22.2826 20.7047 22.0885 20.7594 21.8594C20.8141 21.6276 20.8414 21.362 20.8414 21.0625Z" fill="white"/>
<path d="M26.3156 21.8828H27.4836C27.4602 22.2656 27.3547 22.6055 27.1672 22.9023C26.9823 23.1992 26.7232 23.431 26.3898 23.5977C26.0591 23.7643 25.6607 23.8477 25.1945 23.8477C24.8299 23.8477 24.5031 23.7852 24.2141 23.6602C23.925 23.5326 23.6776 23.3503 23.4719 23.1133C23.2688 22.8763 23.1138 22.5898 23.007 22.2539C22.9003 21.918 22.8469 21.5417 22.8469 21.125V20.7305C22.8469 20.3138 22.9016 19.9375 23.0109 19.6016C23.1229 19.263 23.2818 18.9753 23.4875 18.7383C23.6958 18.5013 23.9445 18.319 24.2336 18.1914C24.5227 18.0638 24.8456 18 25.2023 18C25.6763 18 26.076 18.0859 26.4016 18.2578C26.7297 18.4297 26.9836 18.6667 27.1633 18.9688C27.3456 19.2708 27.4549 19.6146 27.4914 20H26.3195C26.3065 19.7708 26.2609 19.5768 26.1828 19.418C26.1047 19.2565 25.9862 19.1354 25.8273 19.0547C25.6711 18.9714 25.4628 18.9297 25.2023 18.9297C25.007 18.9297 24.8365 18.9661 24.6906 19.0391C24.5448 19.112 24.4224 19.2227 24.3234 19.3711C24.2245 19.5195 24.1503 19.707 24.1008 19.9336C24.0539 20.1576 24.0305 20.4206 24.0305 20.7227V21.125C24.0305 21.4193 24.0526 21.6784 24.0969 21.9023C24.1411 22.1237 24.2089 22.3112 24.3 22.4648C24.3938 22.6159 24.5135 22.7305 24.6594 22.8086C24.8078 22.8841 24.9862 22.9219 25.1945 22.9219C25.4393 22.9219 25.6411 22.8828 25.8 22.8047C25.9589 22.7266 26.0799 22.6107 26.1633 22.457C26.2492 22.3034 26.3 22.112 26.3156 21.8828Z" fill="white"/>
</svg>
