<svg width="20" height="20" viewBox="0 0 20 20" fill="none" xmlns="http://www.w3.org/2000/svg">
<path d="M12.4999 1.66602H4.99992C4.55789 1.66602 4.13397 1.84161 3.82141 2.15417C3.50885 2.46673 3.33325 2.89065 3.33325 3.33268V16.666C3.33325 17.108 3.50885 17.532 3.82141 17.8445C4.13397 18.1571 4.55789 18.3327 4.99992 18.3327H14.9999C15.4419 18.3327 15.8659 18.1571 16.1784 17.8445C16.491 17.532 16.6666 17.108 16.6666 16.666V5.83268L12.4999 1.66602Z" fill="#555759" stroke="#555759" stroke-width="1.5" stroke-linecap="round" stroke-linejoin="round"/>
<mask id="mask0_17030_11723" style="mask-type:alpha" maskUnits="userSpaceOnUse" x="5" y="7" width="10" height="10">
<rect x="5" y="7" width="10" height="10" fill="white"/>
</mask>
<g mask="url(#mask0_17030_11723)">
<path d="M8.97921 13.3125L12.5105 9.78125C12.5938 9.69792 12.6928 9.65625 12.8073 9.65625C12.9219 9.65625 13.0209 9.69792 13.1042 9.78125C13.1875 9.86458 13.2292 9.96354 13.2292 10.0781C13.2292 10.1927 13.1875 10.2917 13.1042 10.375L9.27088 14.2083C9.18755 14.2917 9.09032 14.3333 8.97921 14.3333C8.8681 14.3333 8.77088 14.2917 8.68755 14.2083L6.89588 12.4167C6.81255 12.3333 6.77262 12.2344 6.77609 12.1198C6.77956 12.0052 6.82296 11.9062 6.9063 11.8229C6.98963 11.7396 7.08859 11.6979 7.20317 11.6979C7.31775 11.6979 7.41671 11.7396 7.50005 11.8229L8.97921 13.3125Z" fill="white"/>
</g>
<path d="M11.6667 1.66602V4.99935C11.6667 5.44138 11.8423 5.8653 12.1549 6.17786C12.4675 6.49042 12.8914 6.66602 13.3334 6.66602H16.6667" fill="white"/>
<path d="M11.6667 1.66602V4.99935C11.6667 5.44138 11.8423 5.8653 12.1549 6.17786C12.4675 6.49042 12.8914 6.66602 13.3334 6.66602H16.6667" stroke="#555759" stroke-width="1.5" stroke-linecap="round" stroke-linejoin="round"/>
</svg>
