<svg width="40" height="40" viewBox="0 0 40 40" fill="none" xmlns="http://www.w3.org/2000/svg">
<path fill-rule="evenodd" clip-rule="evenodd" d="M9.17004 3C7.78933 3 6.67004 4.11929 6.67004 5.5V33.83C6.67004 35.2107 7.78933 36.33 9.17004 36.33H30.84C32.2208 36.33 33.34 35.2107 33.34 33.83V5.5C33.34 4.11929 32.2208 3 30.84 3H9.17004ZM9.22007 4.64999C8.72301 4.64999 8.32007 5.05294 8.32007 5.54999V33.75C8.32007 34.2471 8.72301 34.65 9.22007 34.65H30.8201C31.3171 34.65 31.7201 34.2471 31.7201 33.75V5.54999C31.7201 5.05294 31.3171 4.64999 30.8201 4.64999H9.22007Z" fill="#C2C6CE"/>
<path d="M6.66663 15.8333H33.3333V25.8333H6.66663V15.8333Z" fill="#9333EA"/>
<path d="M22.14 28L19.14 31.87L17 29.28L14 33.14H26L22.14 28Z" fill="#C2C6CE"/>
<path d="M13.3367 18.0798V23.9202H12V18.0798H13.3367Z" fill="white"/>
<path d="M14.4364 18.0798H16.0849L17.826 22.0038H17.9001L19.6411 18.0798H21.2896V23.9202H19.9931V20.1188H19.9406L18.3045 23.8916H17.4216L15.7855 20.1046H15.733V23.9202H14.4364V18.0798Z" fill="white"/>
<path d="M26.5831 19.9677C26.5398 19.8289 26.4791 19.7063 26.4009 19.5998C26.3227 19.4914 26.227 19.4002 26.1138 19.326C26.0027 19.25 25.8751 19.192 25.731 19.1521C25.589 19.1122 25.4316 19.0922 25.2587 19.0922C24.9356 19.0922 24.6516 19.1663 24.4067 19.3146C24.1639 19.4629 23.9745 19.6787 23.8387 19.962C23.7029 20.2433 23.635 20.5875 23.635 20.9943C23.635 21.4011 23.7018 21.7471 23.8356 22.0323C23.9694 22.3175 24.1587 22.5352 24.4036 22.6854C24.6485 22.8337 24.9377 22.9078 25.2711 22.9078C25.5736 22.9078 25.8319 22.8584 26.0459 22.7595C26.262 22.6587 26.4267 22.5171 26.5398 22.3346C26.6551 22.1521 26.7127 21.9363 26.7127 21.6873L26.9844 21.7243H25.3544V20.7947H28V21.5304C28 22.0437 27.8827 22.4848 27.6481 22.8536C27.4135 23.2205 27.0904 23.5038 26.6788 23.7034C26.2672 23.9011 25.7959 24 25.2649 24C24.6722 24 24.1515 23.8793 23.7029 23.6378C23.2542 23.3945 22.9044 23.0494 22.6533 22.6027C22.4043 22.154 22.2798 21.6217 22.2798 21.0057C22.2798 20.5323 22.3538 20.1103 22.502 19.7395C22.6523 19.3669 22.8622 19.0513 23.1318 18.7928C23.4014 18.5342 23.7152 18.3375 24.0733 18.2025C24.4314 18.0675 24.8193 18 25.2371 18C25.5952 18 25.9286 18.0485 26.2373 18.1454C26.546 18.2405 26.8197 18.3755 27.0585 18.5504C27.2992 18.7253 27.4958 18.9335 27.6481 19.1749C27.8004 19.4144 27.8981 19.6787 27.9413 19.9677H26.5831Z" fill="white"/>
</svg>
