<svg width="25" height="24" viewBox="0 0 25 24" fill="none" xmlns="http://www.w3.org/2000/svg">
<g clip-path="url(#clip0_639_45202)">
<path d="M14 21H18.5909M7 8.2L14.2073 2.09499C14.9533 1.46311 16.0467 1.46311 16.7927 2.09498L23.2927 7.60087C23.7413 7.98087 24 8.53903 24 9.12696V19C24 20.1046 23.1046 21 22 21H18.5909M15.5 12.2H16.5909C17.6955 12.2 18.5909 13.0954 18.5909 14.2V21" stroke="white" stroke-width="1.5"/>
<path style="stroke: transparent;" d="M12.3939 9.38402H3.51386C2.28986 9.38402 1.30586 10.368 1.30586 11.592V17.736C1.30586 18.96 2.28986 19.944 3.51386 19.944H7.47386V21.984C7.47386 22.176 7.61786 22.344 7.83386 22.344H8.12186C8.31386 22.344 8.48186 22.2 8.48186 21.984V19.944H12.4419C13.6659 19.944 14.6499 18.96 14.6499 17.736V11.592C14.6019 10.368 13.6179 9.38402 12.3939 9.38402ZM13.6419 17.736C13.6419 18.432 13.0899 18.984 12.3939 18.984H3.51386C2.81786 18.984 2.26586 18.432 2.26586 17.736V11.592C2.26586 10.896 2.81786 10.344 3.51386 10.344H12.3939C13.0899 10.344 13.6419 10.896 13.6419 11.592V17.736Z" fill="white"/>
<path style="stroke: transparent;" fill-rule="evenodd" clip-rule="evenodd" d="M14.6499 11.592V17.736C14.6499 18.96 13.6659 19.944 12.4419 19.944H8.48186V21.984C8.48186 22.2 8.31386 22.344 8.12186 22.344H7.83386C7.61786 22.344 7.47386 22.176 7.47386 21.984V19.944H3.51386C2.28986 19.944 1.30586 18.96 1.30586 17.736V11.592C1.30586 10.368 2.28986 9.38402 3.51386 9.38402H12.3939C13.6179 9.38402 14.6019 10.368 14.6499 11.592ZM7.29886 20.119H3.51386C2.19321 20.119 1.13086 19.0567 1.13086 17.736V11.592C1.13086 10.2714 2.19321 9.20901 3.51386 9.20901H12.3939C13.7157 9.20901 14.7732 10.2712 14.8247 11.5852L14.825 11.592L14.8249 17.736C14.8249 19.0567 13.7625 20.119 12.4419 20.119H8.65686V21.984C8.65686 22.3042 8.40275 22.519 8.12186 22.519H7.83386C7.51363 22.519 7.29886 22.2649 7.29886 21.984V20.119ZM12.3939 18.809C12.9932 18.809 13.4669 18.3354 13.4669 17.736V11.592C13.4669 10.9927 12.9932 10.519 12.3939 10.519H3.51386C2.91451 10.519 2.44086 10.9927 2.44086 11.592V17.736C2.44086 18.3354 2.91451 18.809 3.51386 18.809H12.3939ZM12.3939 18.984C13.0899 18.984 13.6419 18.432 13.6419 17.736V11.592C13.6419 10.896 13.0899 10.344 12.3939 10.344H3.51386C2.81786 10.344 2.26586 10.896 2.26586 11.592V17.736C2.26586 18.432 2.81786 18.984 3.51386 18.984H12.3939Z" fill="white"/>
<path style="stroke: transparent;" d="M11.4375 12.0001H4.67746C4.41346 12.0001 4.19746 12.2161 4.19746 12.4801C4.19746 12.7441 4.41346 12.9601 4.67746 12.9601H11.4375C11.7015 12.9601 11.9175 12.7441 11.9175 12.4801C11.9175 12.2161 11.7015 12.0001 11.4375 12.0001Z" fill="white"/>
<path style="stroke: transparent;" fill-rule="evenodd" clip-rule="evenodd" d="M4.67746 11.8251H11.4375C11.7981 11.8251 12.0925 12.1195 12.0925 12.4801C12.0925 12.8408 11.7981 13.1351 11.4375 13.1351H4.67746C4.31681 13.1351 4.02246 12.8408 4.02246 12.4801C4.02246 12.1195 4.31681 11.8251 4.67746 11.8251ZM4.67746 12.0001H11.4375C11.7015 12.0001 11.9175 12.2161 11.9175 12.4801C11.9175 12.7441 11.7015 12.9601 11.4375 12.9601H4.67746C4.41346 12.9601 4.19746 12.7441 4.19746 12.4801C4.19746 12.2161 4.41346 12.0001 4.67746 12.0001Z" fill="white"/>
<path style="stroke: transparent;" d="M11.4375 14.2561H4.67746C4.41346 14.2561 4.19746 14.4721 4.19746 14.7361C4.19746 15.0001 4.41346 15.2161 4.67746 15.2161L11.4375 15.2162C11.7015 15.2162 11.9175 15.0002 11.9175 14.7362C11.9175 14.4721 11.7015 14.2561 11.4375 14.2561Z" fill="white"/>
<path style="stroke: transparent;" fill-rule="evenodd" clip-rule="evenodd" d="M4.67746 14.0811H11.4375C11.7981 14.0811 12.0925 14.3755 12.0925 14.7362C12.0925 15.0968 11.7981 15.3912 11.4375 15.3912L4.67746 15.3911C4.31681 15.3911 4.02246 15.0968 4.02246 14.7361C4.02246 14.3755 4.31681 14.0811 4.67746 14.0811ZM4.67746 14.2561H11.4375C11.7015 14.2561 11.9175 14.4721 11.9175 14.7362C11.9175 15.0002 11.7015 15.2162 11.4375 15.2162L4.67746 15.2161C4.41346 15.2161 4.19746 15.0001 4.19746 14.7361C4.19746 14.4721 4.41346 14.2561 4.67746 14.2561Z" fill="white"/>
<path style="stroke: transparent;" d="M11.6982 16.392H4.67746C4.41346 16.392 4.19746 16.608 4.19746 16.872C4.19746 17.136 4.41346 17.352 4.67746 17.352H11.6982C11.9622 17.352 12.1782 17.136 12.1782 16.872C12.1782 16.608 11.9622 16.392 11.6982 16.392Z" fill="white"/>
<path style="stroke: transparent;" fill-rule="evenodd" clip-rule="evenodd" d="M4.67746 16.217H11.6982C12.0589 16.217 12.3532 16.5114 12.3532 16.872C12.3532 17.2327 12.0589 17.527 11.6982 17.527H4.67746C4.31681 17.527 4.02246 17.2327 4.02246 16.872C4.02246 16.5114 4.31681 16.217 4.67746 16.217ZM4.67746 16.392H11.6982C11.9622 16.392 12.1782 16.608 12.1782 16.872C12.1782 17.136 11.9622 17.352 11.6982 17.352H4.67746C4.41346 17.352 4.19746 17.136 4.19746 16.872C4.19746 16.608 4.41346 16.392 4.67746 16.392Z" fill="white"/>
</g>
<defs>
<clipPath id="clip0_639_45202">
<rect width="24" height="24" fill="white" transform="translate(0.706055)"/>
</clipPath>
</defs>
</svg>
