<svg width="84" height="84" viewBox="0 0 84 84" fill="none" xmlns="http://www.w3.org/2000/svg">
<path d="M81.7289 31.8931L71.1147 23.2427V16.3577C71.1147 13.3566 68.6381 10.7967 65.5423 10.7967H62.4465C60.7659 10.7967 59.2622 11.5029 58.2892 12.7387L49.5325 5.50058C48.3826 4.52962 46.879 4 45.4637 4C43.9601 4 42.5448 4.52962 41.395 5.41231L13.002 28.8037H18.5744L43.6062 8.23693C44.137 7.79559 44.7561 7.61905 45.4637 7.61905C46.0829 7.61905 46.7905 7.79559 47.3212 8.23693L59.616 18.3879C59.9698 18.6527 60.5005 18.3879 60.5005 17.9466V16.3577C60.5005 15.2102 61.385 14.3275 62.5349 14.3275H65.6307C66.7806 14.3275 67.6651 15.2102 67.6651 16.3577V24.0372C67.6651 24.5668 67.9305 25.0081 68.2843 25.3612L79.5176 34.6295C81.552 36.3066 80.4022 39.6609 77.6602 39.6609H72.0877C71.2916 39.6609 70.6725 40.2787 70.6725 41.0732V63.7584C70.6725 65.8769 68.9919 67.554 66.869 67.554H51.5669C51.0362 68.878 50.1517 70.1138 49.1787 71.0848H66.7806C70.8494 71.0848 74.1221 67.8188 74.1221 63.7584V43.1916H77.5717C80.3137 43.1916 82.7019 41.5145 83.5864 38.9547C84.5594 36.3949 83.7633 33.6585 81.7289 31.8931Z" fill="#00A3FF"/>
<path d="M40.8647 32.3345H8.13756C3.62652 32.3345 0 35.9535 0 40.4553V63.0522C0 67.554 3.62652 71.173 8.13756 71.173H22.7321V78.6759C22.7321 79.3821 23.2628 80 24.0589 80H25.1203C25.8279 80 26.4471 79.4704 26.4471 78.6759V71.173H41.0416C45.5526 71.173 49.1791 67.554 49.1791 63.0522V40.4553C49.0022 35.9535 45.3757 32.3345 40.8647 32.3345ZM45.4642 63.0522C45.4642 65.6121 43.4298 67.6423 40.8647 67.6423H8.13756C5.57246 67.6423 3.53807 65.6121 3.53807 63.0522V40.4553C3.53807 37.8954 5.57246 35.8653 8.13756 35.8653H40.8647C43.4298 35.8653 45.4642 37.8954 45.4642 40.4553V63.0522Z" fill="#00A3FF"/>
<path d="M38.3004 41.7793H28.1284C27.1554 41.7793 26.3594 42.5737 26.3594 43.5447C26.3594 44.5156 27.1554 45.3101 28.1284 45.3101H38.3004C39.2733 45.3101 40.0694 44.5156 40.0694 43.5447C40.0694 42.5737 39.2733 41.7793 38.3004 41.7793Z" fill="#00A3FF"/>
<path d="M38.3004 50.0767H28.1284C27.1554 50.0767 26.3594 50.8711 26.3594 51.842C26.3594 52.813 27.1554 53.6074 28.1284 53.6074H38.3004C39.2733 53.6074 40.0694 52.813 40.0694 51.842C40.0694 50.8711 39.2733 50.0767 38.3004 50.0767Z" fill="#00A3FF"/>
<path d="M38.3004 58.1091H28.1284C27.1554 58.1091 26.3594 58.9036 26.3594 59.8745C26.3594 60.8455 27.1554 61.6399 28.1284 61.6399H38.3004C39.2733 61.6399 40.0694 60.8455 40.0694 59.8745C40.0694 58.9036 39.2733 58.1091 38.3004 58.1091Z" fill="#00A3FF"/>
<path d="M16.3634 50.0767H14.8597C13.6214 50.0767 12.6484 48.9292 12.8253 47.6934C13.0022 46.6342 13.9752 46.0163 14.9481 46.0163H16.3634C17.4248 46.0163 18.2209 46.8107 18.3978 47.7817C18.3978 47.9582 18.6631 48.1348 18.84 48.1348H21.2282C21.4936 48.1348 21.6705 47.9582 21.6705 47.6934C21.4936 45.2219 19.6361 43.28 17.2479 42.9269V40.8084C17.2479 40.5436 17.071 40.3671 16.8056 40.3671H14.4174C14.1521 40.3671 13.9752 40.5436 13.9752 40.8084V42.9269C11.3216 43.3682 9.28724 45.8398 9.55259 48.6644C9.81795 51.4007 12.2946 53.4309 15.1251 53.4309H16.3634C17.6017 53.4309 18.5747 54.5784 18.3978 55.8142C18.2209 56.7852 17.2479 57.4913 16.2749 57.4913H14.8597C13.7983 57.4913 13.0022 56.7852 12.8253 55.8142C12.8253 55.6377 12.56 55.4611 12.383 55.4611H9.99485C9.7295 55.4611 9.55259 55.726 9.55259 55.9025C9.7295 58.2858 11.587 60.316 13.9752 60.669V62.7875C13.9752 63.0523 14.1521 63.2288 14.4174 63.2288H16.8056C17.071 63.2288 17.2479 63.0523 17.2479 62.7875V60.669C19.5476 60.2277 21.4051 58.374 21.6705 55.9908C21.9358 52.8131 19.4592 50.0767 16.3634 50.0767Z" fill="#00A3FF"/>
</svg>
