<svg width="77" height="68" viewBox="0 0 77 68" fill="none" xmlns="http://www.w3.org/2000/svg">
<path fill-rule="evenodd" clip-rule="evenodd" d="M6.06053 24.8037C4.83291 25.8047 3.57256 26.8321 2.27062 27.8931C0.236232 29.6585 -0.559838 32.3949 0.413131 34.9547C1.29765 37.5145 3.68585 39.1916 6.42786 39.1916H9.87746V59.7584C9.87746 63.8188 13.1502 67.0848 17.219 67.0848H59.7801C63.8489 67.0848 67.1216 63.8188 67.1216 59.7584V39.1916H70.5713C73.3133 39.1916 75.7015 37.5145 76.586 34.9547C77.5589 32.3949 76.7629 29.6585 74.7285 27.8931L70.9377 24.8037H70.9976L64.1143 19.1329V12.3577C64.1143 9.35656 61.6376 6.79675 58.5418 6.79675H55.446C53.8128 6.79675 52.3466 7.46368 51.3723 8.6355L42.6046 1.41231C41.4547 0.529617 40.0395 0 38.5358 0C38.5237 0 38.5116 3.86107e-05 38.4995 0.000115777C38.4875 3.86111e-05 38.4754 0 38.4633 0C36.9596 0 35.5444 0.529617 34.3945 1.41231L6.0015 24.8037H6.06053ZM11.5429 24.8037L4.48192 30.6295C2.44753 32.3066 3.59739 35.6609 6.33939 35.6609H11.9119C12.7079 35.6609 13.3271 36.2787 13.3271 37.0732V59.7584C13.3271 61.8769 15.0077 63.554 17.1305 63.554H59.8686C61.9914 63.554 63.672 61.8769 63.672 59.7584V37.0732C63.672 36.2787 64.2912 35.6609 65.0872 35.6609H70.6597C73.4017 35.6609 74.5516 32.3066 72.5172 30.6295L65.4562 24.8037H65.4251L52.8725 14.4902C52.7833 14.4801 52.695 14.4474 52.6156 14.3879L40.3208 4.23693C39.8004 3.80418 39.1099 3.62602 38.4995 3.61925C37.8892 3.62602 37.1987 3.80418 36.6783 4.23693C35.5311 5.18417 34.4028 6.0873 33.2922 6.95948L11.574 24.8037H11.5429ZM54.1088 10.89L60.6647 16.291V12.3577C60.6647 11.2102 59.7801 10.3275 58.6303 10.3275H55.5345C54.9714 10.3275 54.4719 10.5392 54.1088 10.89Z" fill="#9135EF"/>
</svg>
