<svg width="40" height="40" viewBox="0 0 40 40" fill="none" xmlns="http://www.w3.org/2000/svg">
<path fill-rule="evenodd" clip-rule="evenodd" d="M6.66669 5.83333C6.66669 4.45262 7.78597 3.33333 9.16669 3.33333H25.6311C26.2942 3.33333 26.9301 3.59672 27.3989 4.06556L32.6011 9.26776C33.07 9.7366 33.3333 10.3725 33.3333 11.0355V34.1667C33.3333 35.5474 32.2141 36.6667 30.8333 36.6667H9.16669C7.78597 36.6667 6.66669 35.5474 6.66669 34.1667V5.83333ZM31.6667 11.6667H25.8333C25.3731 11.6667 25 11.2936 25 10.8333V5H9.16669C8.70645 5 8.33335 5.37309 8.33335 5.83333V34.1667C8.33335 34.6269 8.70645 35 9.16669 35H30.8333C31.2936 35 31.6667 34.6269 31.6667 34.1667V11.6667Z" fill="#C2C6CE"/>
<path d="M6.66699 15.833H33.3337V25.833H6.66699V15.833Z" fill="#F63B3B"/>
<path d="M15.2695 21.7578H13.8555V20.6992H15.2695C15.4622 20.6992 15.6185 20.6667 15.7383 20.6016C15.8581 20.5365 15.9453 20.4466 16 20.332C16.0573 20.2148 16.0859 20.0833 16.0859 19.9375C16.0859 19.7812 16.0573 19.6367 16 19.5039C15.9453 19.3711 15.8581 19.2643 15.7383 19.1836C15.6185 19.1003 15.4622 19.0586 15.2695 19.0586H14.3711V23.6875H13V18H15.2695C15.7253 18 16.1172 18.0833 16.4453 18.25C16.776 18.4167 17.0299 18.6458 17.207 18.9375C17.3841 19.2266 17.4727 19.5573 17.4727 19.9297C17.4727 20.2969 17.3841 20.6172 17.207 20.8906C17.0299 21.1641 16.776 21.3776 16.4453 21.5312C16.1172 21.6823 15.7253 21.7578 15.2695 21.7578Z" fill="white"/>
<path d="M20.3786 23.6875H19.1169L19.1247 22.6328H20.3786C20.639 22.6328 20.8591 22.5703 21.0387 22.4453C21.221 22.3203 21.3591 22.1341 21.4528 21.8867C21.5492 21.6367 21.5973 21.3294 21.5973 20.9648V20.7188C21.5973 20.4453 21.57 20.2057 21.5153 20C21.4632 19.7917 21.3851 19.6185 21.2809 19.4805C21.1768 19.3398 21.0466 19.2344 20.8903 19.1641C20.7367 19.0938 20.5596 19.0586 20.3591 19.0586H19.0934V18H20.3591C20.7445 18 21.0973 18.0664 21.4177 18.1992C21.7406 18.3294 22.0192 18.5169 22.2536 18.7617C22.4906 19.0039 22.6729 19.2917 22.8005 19.625C22.9307 19.9557 22.9958 20.3229 22.9958 20.7266V20.9648C22.9958 21.3659 22.9307 21.7331 22.8005 22.0664C22.6729 22.3997 22.4919 22.6875 22.2575 22.9297C22.0231 23.1719 21.7458 23.3594 21.4255 23.4922C21.1078 23.6224 20.7588 23.6875 20.3786 23.6875ZM19.902 18V23.6875H18.5309V18H19.902Z" fill="white"/>
<path d="M25.4017 18V23.6875H24.0306V18H25.4017ZM27.6127 20.3672V21.4219H25.0111V20.3672H27.6127ZM27.8353 18V19.0586H25.0111V18H27.8353Z" fill="white"/>
</svg>
