<svg width="25" height="24" viewBox="0 0 25 24"  xmlns="http://www.w3.org/2000/svg">
<mask id="mask0_403_56781" style="mask-type:alpha" maskUnits="userSpaceOnUse" x="0" y="0" width="25" height="24">
<rect x="0.599976" width="24" height="24" />
</mask>
<g mask="url(#mask0_403_56781)">
<path d="M8.55842 10.6173C7.82141 10.6173 7.19409 10.3568 6.67647 9.83581C6.15884 9.31483 5.90002 8.68583 5.90002 7.94881C5.90002 7.21181 6.16052 6.58449 6.68152 6.06686C7.20251 5.54924 7.83151 5.29044 8.56852 5.29044C9.30554 5.29044 9.93286 5.55093 10.4505 6.07191C10.9681 6.59291 11.2269 7.22191 11.2269 7.95891C11.2269 8.69593 10.9664 9.32324 10.4454 9.84086C9.92444 10.3585 9.29544 10.6173 8.55842 10.6173ZM8.5629 9.31734C8.94148 9.31734 9.26347 9.18484 9.52887 8.91984C9.79426 8.65482 9.92695 8.33302 9.92695 7.95444C9.92695 7.57585 9.79444 7.25387 9.52942 6.98849C9.26442 6.72309 8.94263 6.59039 8.56405 6.59039C8.18545 6.59039 7.86346 6.72289 7.59807 6.98791C7.33269 7.25293 7.2 7.57473 7.2 7.95331C7.2 8.33189 7.33251 8.65388 7.59752 8.91926C7.86252 9.18464 8.18432 9.31734 8.5629 9.31734ZM16.6411 18.7C15.9041 18.7 15.2768 18.4395 14.7592 17.9185C14.2415 17.3975 13.9827 16.7685 13.9827 16.0315C13.9827 15.2945 14.2432 14.6672 14.7642 14.1495C15.2852 13.6319 15.9142 13.3731 16.6512 13.3731C17.3882 13.3731 18.0155 13.6336 18.5331 14.1546C19.0508 14.6756 19.3096 15.3046 19.3096 16.0416C19.3096 16.7786 19.0491 17.4059 18.5281 17.9235C18.0071 18.4412 17.3781 18.7 16.6411 18.7ZM16.6456 17.4C17.0242 17.4 17.3461 17.2675 17.6115 17.0025C17.8769 16.7375 18.0096 16.4157 18.0096 16.0371C18.0096 15.6585 17.8771 15.3365 17.6121 15.0711C17.3471 14.8058 17.0253 14.6731 16.6467 14.6731C16.2681 14.6731 15.9461 14.8056 15.6807 15.0706C15.4154 15.3356 15.2827 15.6574 15.2827 16.036C15.2827 16.4146 15.4152 16.7366 15.6802 17.0019C15.9452 17.2673 16.267 17.4 16.6456 17.4ZM6.4731 18.1269C6.33465 17.9884 6.26542 17.8347 6.26542 17.6657C6.26542 17.4967 6.33465 17.344 6.4731 17.2077L17.8519 5.82889C17.9904 5.69044 18.1378 5.62698 18.2942 5.63851C18.4506 5.65004 18.5981 5.72504 18.7365 5.86351C18.875 6.00196 18.9442 6.15569 18.9442 6.32471C18.9442 6.49373 18.875 6.64639 18.7365 6.78271L7.3577 18.1615C7.21923 18.3 7.0718 18.3634 6.9154 18.3519C6.759 18.3404 6.61157 18.2654 6.4731 18.1269Z" fill="#1B2A36"/>
</g>
</svg>
