<svg width="20" height="20" viewBox="0 0 20 20" fill="none" xmlns="http://www.w3.org/2000/svg">
<path d="M15.8333 1.66666H4.16667C3.24167 1.66666 2.5 2.41666 2.5 3.33332V15C2.5 15.9167 3.24167 16.6667 4.16667 16.6667H7.5L10 19.1667L12.5 16.6667H15.8333C16.75 16.6667 17.5 15.9167 17.5 15V3.33332C17.5 2.41666 16.75 1.66666 15.8333 1.66666ZM15.8333 15H11.8083L10 16.8083L8.19167 15H4.16667V3.33332H15.8333V15ZM9.16667 12.5H10.8333V14.1667H9.16667V12.5ZM10 5.83332C10.9167 5.83332 11.6667 6.58332 11.6667 7.49999C11.6667 9.16666 9.16667 8.95832 9.16667 11.6667H10.8333C10.8333 9.79166 13.3333 9.58332 13.3333 7.49999C13.3333 5.65832 11.8417 4.16666 10 4.16666C8.15833 4.16666 6.66667 5.65832 6.66667 7.49999H8.33333C8.33333 6.58332 9.08333 5.83332 10 5.83332Z" fill="#273C4D"/>
</svg>
