<svg xmlns="http://www.w3.org/2000/svg" width="24" height="24" fill="none">
  <mask id="a" width="24" height="24" x="0" y="0" maskUnits="userSpaceOnUse" style="mask-type:alpha">
    <path fill="#D9D9D9" d="M0 0h24v24H0z"/>
  </mask>
  <g mask="url(#a)">
    <path fill="currentColor" fill-rule="evenodd" d="m12 3.159-1.258 1.268a2.5 2.5 0 0 1-2.176.707l-1.763-.287-.272 1.765a2.5 2.5 0 0 1-1.345 1.852l-1.595.804.818 1.588a2.5 2.5 0 0 1 0 2.288l-.818 1.588 1.595.804a2.5 2.5 0 0 1 1.345 1.852l.272 1.765 1.763-.287a2.5 2.5 0 0 1 2.176.707L12 20.841l1.258-1.268a2.5 2.5 0 0 1 2.176-.707l1.763.287.272-1.765a2.5 2.5 0 0 1 1.345-1.852l1.595-.804-.818-1.588a2.5 2.5 0 0 1 0-2.288l.818-1.588-1.595-.804a2.5 2.5 0 0 1-1.345-1.852l-.272-1.765-1.763.287a2.5 2.5 0 0 1-2.176-.707L12 3.159Zm-.71-1.415a1 1 0 0 1 1.42 0l1.613 1.626a1 1 0 0 0 .87.283l2.26-.367a1 1 0 0 1 1.15.834l.348 2.264a1 1 0 0 0 .538.74l2.045 1.032a1 1 0 0 1 .439 1.35l-1.048 2.036a1 1 0 0 0 0 .916l1.048 2.036a1 1 0 0 1-.439 1.35l-2.045 1.032a1 1 0 0 0-.538.74l-.349 2.264a1 1 0 0 1-1.148.834l-2.26-.367a1 1 0 0 0-.871.282l-1.613 1.627a1 1 0 0 1-1.42 0l-1.613-1.627a1 1 0 0 0-.87-.282l-2.26.367a1 1 0 0 1-1.15-.834l-.348-2.264a1 1 0 0 0-.538-.74l-2.045-1.032a1 1 0 0 1-.439-1.35l1.048-2.036a1 1 0 0 0 0-.916L2.027 9.506a1 1 0 0 1 .439-1.35L4.51 7.124a1 1 0 0 0 .538-.74l.349-2.264a1 1 0 0 1 1.148-.834l2.26.367a1 1 0 0 0 .871-.283l1.613-1.626Z" clip-rule="evenodd"/>
  </g>
  <path fill="currentColor" d="M11.374 18v-1.433a3.221 3.221 0 0 1-1.467-.767c-.412-.378-.714-.911-.907-1.6l1.187-.5c.16.533.399.939.714 1.217.316.277.73.416 1.243.416.439 0 .81-.102 1.116-.308.304-.205.457-.525.457-.958 0-.39-.118-.698-.353-.926-.236-.227-.781-.485-1.637-.774-.92-.3-1.55-.659-1.893-1.075-.342-.417-.513-.925-.513-1.525 0-.723.224-1.284.674-1.684.449-.4.909-.627 1.38-.683V6h1.283v1.4c.535.089.976.292 1.324.608a2.8 2.8 0 0 1 .761 1.159l-1.187.533c-.128-.356-.31-.622-.545-.8-.236-.178-.556-.267-.963-.267-.47 0-.829.109-1.075.326a1.033 1.033 0 0 0-.369.808c0 .366.16.655.482.866.32.211.877.434 1.668.667.738.222 1.297.575 1.677 1.058.38.484.569 1.042.569 1.675 0 .79-.225 1.39-.674 1.8-.449.411-1.005.667-1.668.767V18h-1.284Z"/>
</svg>

