<svg xmlns="http://www.w3.org/2000/svg" width="24" height="24" fill="none">
  <mask id="a" width="24" height="24" x="0" y="0" maskUnits="userSpaceOnUse" style="mask-type:alpha">
    <path fill="currentColor" d="M0 0h24v24H0z"/>
  </mask>
  <g mask="url(#a)">
    <path fill="currentColor" d="M8.946 16.515a1.98 1.98 0 0 1-1.535.249 1.908 1.908 0 0 1-1.247-.893 1.908 1.908 0 0 1-.225-1.518 1.98 1.98 0 0 1 .921-1.251 1.98 1.98 0 0 1 1.535-.25c.544.127.96.425 1.247.894.287.47.362.975.225 1.518a1.98 1.98 0 0 1-.921 1.251Zm2.085 3.413c-1.45.886-2.985 1.14-4.608.764-1.622-.376-2.868-1.275-3.737-2.697-.869-1.422-1.1-2.941-.694-4.556.406-1.616 1.334-2.866 2.783-3.75.97-.594 1.995-.897 3.071-.91a6.27 6.27 0 0 1 3.014.707l7.282-4.448a1.07 1.07 0 0 1 .376-.142c.134-.023.271-.02.41.013l2.782.645c.139.032.257.087.354.164.097.078.18.173.25.287.07.114.116.231.141.353a.877.877 0 0 1-.015.39l-1.106 4.396a.965.965 0 0 1-.156.33c-.076.105-.16.195-.252.271a.863.863 0 0 1-.318.165.905.905 0 0 1-.373.023l-1.64-.141-.678 1.674a.976.976 0 0 1-.694.6.88.88 0 0 1-.327.024l-1.887-.107-1.021.624a6.27 6.27 0 0 1-.746 3.004c-.503.952-1.24 1.724-2.211 2.317Zm-1.043-1.706c.812-.496 1.378-1.174 1.698-2.034.32-.86.356-1.72.107-2.584l2.717-1.66 1.795.104.988-2.39 2.26.23.652-2.595-1.39-.322-8.064 4.926a4.028 4.028 0 0 0-2.35-1.085c-.91-.107-1.772.087-2.583.583-.957.584-1.571 1.418-1.844 2.503-.273 1.085-.122 2.096.451 3.035.574.939 1.405 1.534 2.494 1.787 1.09.252 2.113.086 3.07-.498Z"/>
  </g>
</svg>