<svg xmlns="http://www.w3.org/2000/svg" width="24" height="24" fill="none">
  <mask id="a" width="24" height="24" x="0" y="0" maskUnits="userSpaceOnUse" style="mask-type:alpha">
    <path fill="#D9D9D9" d="M0 0h24v24H0z"/>
  </mask>
  <g mask="url(#a)">
    <path fill="currentColor" d="m12.474 16.824 8.375-8.375-1.3-1.3-8.375 8.375 1.3 1.3Zm-6.525 2.175c-1.667-.083-2.908-.433-3.725-1.05-.817-.617-1.225-1.508-1.225-2.675 0-1.083.446-1.963 1.337-2.638.892-.675 2.13-1.079 3.713-1.212.65-.05 1.137-.154 1.462-.313.325-.158.488-.379.488-.662 0-.433-.246-.758-.738-.975-.491-.217-1.304-.375-2.437-.475l.175-2c1.717.133 2.98.479 3.787 1.037C9.595 8.595 10 9.4 10 10.45c0 .883-.32 1.575-.963 2.075-.641.5-1.587.8-2.837.9-1.067.083-1.867.28-2.4.587-.533.309-.8.73-.8 1.263 0 .583.233 1.004.7 1.262.467.259 1.25.413 2.35.463l-.1 2Zm7 .175-4.125-4.125 9.55-9.55c.333-.333.73-.5 1.188-.5.458 0 .854.167 1.187.5l1.75 1.75c.333.333.5.729.5 1.187 0 .459-.167.855-.5 1.188l-9.55 9.55Zm-3.975.825c-.283.067-.533-.008-.75-.225-.217-.217-.292-.467-.225-.75l.825-3.975 4.125 4.125-3.975.825Z"/>
  </g>
</svg>
