<svg width="25" height="24" viewBox="0 0 25 24" fill="none" xmlns="http://www.w3.org/2000/svg">
<path d="M12.1902 2C6.6702 2 2.2002 6.48 2.2002 12C2.2002 17.52 6.6702 22 12.1902 22C17.7202 22 22.2002 17.52 22.2002 12C22.2002 6.48 17.7202 2 12.1902 2ZM19.6702 9.16L14.6602 8.73L12.6602 4.02C15.8702 4.21 18.5702 6.29 19.6702 9.16ZM14.6002 15.42L12.2002 13.98L9.81019 15.42L10.4402 12.7L8.3302 10.87L11.1102 10.63L12.2002 8.06L13.2902 10.62L16.0702 10.86L13.9602 12.69L14.6002 15.42ZM11.7402 4.02L9.7402 8.74L4.7202 9.17C5.8202 6.29 8.5202 4.2 11.7402 4.02ZM4.2002 12C4.2002 11.36 4.2802 10.74 4.4302 10.14L8.2202 13.42L7.1102 18.17C5.3302 16.7 4.2002 14.48 4.2002 12ZM8.0402 18.82L12.2002 16.31L16.3602 18.81C15.1402 19.56 13.7202 20 12.1902 20C10.6702 20 9.2502 19.56 8.0402 18.82ZM17.2902 18.17L16.1802 13.42L19.9702 10.14C20.1102 10.73 20.2002 11.36 20.2002 12C20.2002 14.48 19.0602 16.7 17.2902 18.17Z" fill="#0072B3"/>
</svg>
