<svg width="58" height="57" viewBox="0 0 58 57" fill="none" xmlns="http://www.w3.org/2000/svg">
<path d="M47.8222 38.178C49.6601 36.8987 51.0464 35.065 51.7807 32.9416C52.5151 30.8182 52.5595 28.5151 51.9077 26.3646C51.2559 24.2142 49.9415 22.3277 48.1543 20.9776C46.3672 19.6275 44.1996 18.8836 41.9647 18.8533H37.7474C37.0391 16.4501 35.7958 14.2409 34.1117 12.3934C32.4277 10.5459 30.3472 9.10866 28.0283 8.19086C25.7094 7.27306 23.2131 6.89883 20.7289 7.09659C18.2447 7.29435 15.838 8.0589 13.6915 9.33217C11.545 10.6054 9.71524 12.354 8.34108 14.4449C6.96692 16.5359 6.08454 18.9143 5.76094 21.3996C5.43735 23.8849 5.68105 26.4117 6.47353 28.7881C7.26602 31.1645 8.58646 33.328 10.3346 35.1143" stroke="black" stroke-width="3" stroke-linecap="round" stroke-linejoin="round"/>
<path d="M29.0786 28.28V49.49" stroke="black" stroke-width="3" stroke-linecap="round" stroke-linejoin="round"/>
<path d="M38.4503 37.7067L29.0784 28.28L19.7065 37.7067" stroke="black" stroke-width="3" stroke-linecap="round" stroke-linejoin="round"/>
</svg>
