<svg xmlns="http://www.w3.org/2000/svg" fill="none" viewBox="0 0 24 24">
  <mask id="a" width="24" height="24" x="0" y="0" maskUnits="userSpaceOnUse" style="mask-type:alpha">
    <path fill="#D9D9D9" d="M0 0h24v24H0z"/>
  </mask>
  <g mask="url(#a)">
    <path fill="currentColor" d="M12 22a10.1 10.1 0 0 1-9.21-6.1A9.74 9.74 0 0 1 2 12a10.1 10.1 0 0 1 6.1-9.21A9.74 9.74 0 0 1 12 2a10.1 10.1 0 0 1 9.21 6.1c.53 1.22.79 2.52.79 3.9s-.26 2.68-.79 3.9a10.1 10.1 0 0 1-5.31 5.31A9.74 9.74 0 0 1 12 22Zm0-2c2.23 0 4.13-.77 5.68-2.32A7.72 7.72 0 0 0 20 12h-8V4c-2.23 0-4.13.78-5.67 2.33A7.72 7.72 0 0 0 4 12c0 2.23.78 4.13 2.33 5.68A7.72 7.72 0 0 0 12 20Z"/>
  </g>
</svg>
