<svg width="40" height="40" viewBox="0 0 40 40" fill="none" xmlns="http://www.w3.org/2000/svg">
<path fill-rule="evenodd" clip-rule="evenodd" d="M6.66699 5.83301C6.66699 4.4523 7.78628 3.33301 9.16699 3.33301H25.6315C26.2945 3.33301 26.9304 3.5964 27.3992 4.06524L32.6014 9.26744C33.0703 9.73628 33.3337 10.3722 33.3337 11.0352V34.1663C33.3337 35.5471 32.2144 36.6663 30.8337 36.6663H9.16699C7.78628 36.6663 6.66699 35.5471 6.66699 34.1663V5.83301ZM31.667 11.6663H25.8337C25.3734 11.6663 25.0003 11.2932 25.0003 10.833V4.99967H9.16699C8.70675 4.99967 8.33366 5.37277 8.33366 5.83301V34.1663C8.33366 34.6266 8.70675 34.9997 9.16699 34.9997H30.8337C31.2939 34.9997 31.667 34.6266 31.667 34.1663V11.6663Z" fill="#C2C6CE"/>
<path d="M6.66699 15.833H33.3337V25.833H6.66699V15.833Z" fill="#468C59"/>
<path d="M14.3906 18.0781L15.4609 20.0625L16.5312 18.0781H17.8711L16.2188 20.8984L17.9141 23.7656H16.5625L15.4609 21.7422L14.3594 23.7656H13L14.6992 20.8984L13.043 18.0781H14.3906Z" fill="white"/>
<path d="M22.3102 22.8516V23.7656H19.4469V22.8516H22.3102ZM19.8258 18.0781V23.7656H18.6539V18.0781H19.8258Z" fill="white"/>
<path d="M26.093 22.2773C26.093 22.1758 26.0773 22.0846 26.0461 22.0039C26.0174 21.9206 25.9628 21.8451 25.882 21.7773C25.8013 21.707 25.688 21.638 25.5422 21.5703C25.3964 21.5026 25.2076 21.4323 24.9758 21.3594C24.718 21.276 24.4732 21.1823 24.2414 21.0781C24.0122 20.974 23.8091 20.8529 23.632 20.7148C23.4576 20.5742 23.3195 20.4115 23.218 20.2266C23.119 20.0417 23.0695 19.8268 23.0695 19.582C23.0695 19.3451 23.1216 19.1302 23.2258 18.9375C23.3299 18.7422 23.4758 18.5755 23.6633 18.4375C23.8508 18.2969 24.0721 18.1888 24.3273 18.1133C24.5852 18.0378 24.8677 18 25.175 18C25.5943 18 25.9602 18.0755 26.2727 18.2266C26.5852 18.3776 26.8273 18.5846 26.9992 18.8477C27.1737 19.1107 27.2609 19.4115 27.2609 19.75H26.0969C26.0969 19.5833 26.0617 19.4375 25.9914 19.3125C25.9237 19.1849 25.8195 19.0846 25.6789 19.0117C25.5409 18.9388 25.3664 18.9023 25.1555 18.9023C24.9523 18.9023 24.7831 18.9336 24.6477 18.9961C24.5122 19.056 24.4107 19.138 24.343 19.2422C24.2753 19.3438 24.2414 19.4583 24.2414 19.5859C24.2414 19.6823 24.2648 19.7695 24.3117 19.8477C24.3612 19.9258 24.4341 19.9987 24.5305 20.0664C24.6268 20.1341 24.7453 20.1979 24.8859 20.2578C25.0266 20.3177 25.1893 20.3763 25.3742 20.4336C25.6841 20.5273 25.9563 20.6328 26.1906 20.75C26.4276 20.8672 26.6255 20.9987 26.7844 21.1445C26.9432 21.2904 27.063 21.4557 27.1438 21.6406C27.2245 21.8255 27.2648 22.0352 27.2648 22.2695C27.2648 22.5169 27.2167 22.7383 27.1203 22.9336C27.024 23.1289 26.8846 23.2943 26.7023 23.4297C26.5201 23.5651 26.3026 23.668 26.05 23.7383C25.7974 23.8086 25.5148 23.8438 25.2023 23.8438C24.9211 23.8438 24.6438 23.8073 24.3703 23.7344C24.0969 23.6589 23.8482 23.5456 23.6242 23.3945C23.4029 23.2435 23.2258 23.0508 23.093 22.8164C22.9602 22.582 22.8938 22.3047 22.8938 21.9844H24.0695C24.0695 22.1615 24.0969 22.3112 24.1516 22.4336C24.2063 22.556 24.2831 22.6549 24.382 22.7305C24.4836 22.806 24.6034 22.8607 24.7414 22.8945C24.882 22.9284 25.0357 22.9453 25.2023 22.9453C25.4055 22.9453 25.5721 22.9167 25.7023 22.8594C25.8352 22.8021 25.9328 22.7227 25.9953 22.6211C26.0604 22.5195 26.093 22.4049 26.093 22.2773Z" fill="white"/>
</svg>
