<svg width="16" height="16" viewBox="0 0 16 16" fill="none" xmlns="http://www.w3.org/2000/svg">
<circle cx="8" cy="8" r="8" fill="#111112"/>
<mask id="mask0_7878_41470" style="mask-type:alpha" maskUnits="userSpaceOnUse" x="1" y="1" width="14" height="14">
<rect x="1" y="1" width="14" height="14" fill="#D9D9D9"/>
</mask>
<g mask="url(#mask0_7878_41470)">
<path d="M7.78958 13.1792C7.69236 13.1792 7.59757 13.167 7.50521 13.1427C7.41285 13.1184 7.32292 13.0819 7.23542 13.0333L4.31875 11.4583C4.12431 11.3514 3.97361 11.208 3.86667 11.0281C3.75972 10.8483 3.70625 10.6465 3.70625 10.4229V7.62292L2.30625 6.85C2.19931 6.79167 2.12153 6.71875 2.07292 6.63125C2.02431 6.54375 2 6.44653 2 6.33958C2 6.23264 2.02431 6.13542 2.07292 6.04792C2.12153 5.96042 2.19931 5.8875 2.30625 5.82917L7.23542 3.14583C7.32292 3.09722 7.41285 3.06076 7.50521 3.03646C7.59757 3.01215 7.69236 3 7.78958 3C7.88681 3 7.9816 3.01215 8.07396 3.03646C8.16632 3.06076 8.25625 3.09722 8.34375 3.14583L13.9 6.17917C13.9972 6.22778 14.0726 6.29826 14.126 6.39062C14.1795 6.48299 14.2063 6.58264 14.2063 6.68958V10.4229C14.2063 10.5882 14.1503 10.7267 14.0385 10.8385C13.9267 10.9503 13.7882 11.0062 13.6229 11.0062C13.4576 11.0062 13.3191 10.9503 13.2073 10.8385C13.0955 10.7267 13.0396 10.5882 13.0396 10.4229V6.98125L11.8729 7.62292V10.4229C11.8729 10.6465 11.8194 10.8483 11.7125 11.0281C11.6056 11.208 11.4549 11.3514 11.2604 11.4583L8.34375 13.0333C8.25625 13.0819 8.16632 13.1184 8.07396 13.1427C7.9816 13.167 7.88681 13.1792 7.78958 13.1792ZM7.78958 8.49792L11.7854 6.33958L7.78958 4.18125L3.79375 6.33958L7.78958 8.49792ZM7.78958 12.0125L10.7063 10.4375V8.23542L8.35833 9.53333C8.27083 9.58194 8.17847 9.6184 8.08125 9.64271C7.98403 9.66701 7.88681 9.67917 7.78958 9.67917C7.69236 9.67917 7.59514 9.66701 7.49792 9.64271C7.40069 9.6184 7.30833 9.58194 7.22083 9.53333L4.87292 8.23542V10.4375L7.78958 12.0125Z" fill="white"/>
</g>
</svg>
