<svg width="24" height="24" viewBox="0 0 24 24" fill="none" xmlns="http://www.w3.org/2000/svg">
<g clip-path="url(#clip0_3710_66598)">
<rect x="8" y="8.96362" width="13" height="11" fill="#DDDFE0"/>
<path fill-rule="evenodd" clip-rule="evenodd" d="M9.89453 7.59688V4.33022H5.81328C5.18964 4.33022 4.58974 4.57036 4.14603 5.00063C3.702 5.4312 3.45078 6.01719 3.45078 6.63022V20.6302C3.45078 20.9012 3.33984 21.1631 3.13921 21.3577C2.93827 21.5525 2.66382 21.6636 2.37578 21.6636C2.08774 21.6636 1.8133 21.5525 1.61235 21.3577C1.41172 21.1631 1.30078 20.9012 1.30078 20.6302V6.63022C1.30078 5.38673 1.60098 4.30278 2.29119 3.53201C2.97585 2.76744 4.08718 2.26355 5.81328 2.26355H21.6258C21.9138 2.26355 22.1883 2.37459 22.3892 2.56944C22.5898 2.76399 22.7008 3.02586 22.7008 3.29688C22.7008 3.56791 22.5898 3.82977 22.3892 4.02432C22.1883 4.21918 21.9138 4.33022 21.6258 4.33022H19.2633V7.59688H19.5633C19.9766 7.59688 20.3856 7.67583 20.7669 7.829C21.1483 7.98217 21.4942 8.20644 21.7851 8.48856C22.076 8.77067 22.3063 9.10508 22.4632 9.47245C22.6201 9.8398 22.7008 10.2332 22.7008 10.6302V17.9635C22.7008 18.3606 22.6201 18.754 22.4632 19.1213C22.3063 19.4887 22.076 19.8231 21.7851 20.1052C21.4942 20.3873 21.1483 20.6116 20.7669 20.7648C20.3856 20.9179 19.9766 20.9969 19.5633 20.9969H9.59453C8.75949 20.9969 7.96043 20.6751 7.3727 20.1052C6.78527 19.5356 6.45703 18.765 6.45703 17.9635V10.6302C6.45703 9.82876 6.78527 9.05819 7.3727 8.48856C7.96043 7.91864 8.75949 7.59688 9.59453 7.59688H9.89453ZM17.1133 4.33022H12.0445V7.59688H17.1133V4.33022ZM20.5508 17.9635V10.6302C20.5508 10.3708 20.4444 10.124 20.2583 9.94344C20.0724 9.76322 19.8223 9.66355 19.5633 9.66355H9.59453C9.33556 9.66355 9.0854 9.76322 8.89955 9.94344C8.71339 10.124 8.60703 10.3708 8.60703 10.6302V17.9635C8.60703 18.223 8.71339 18.4698 8.89955 18.6503C9.0854 18.8305 9.33556 18.9302 9.59453 18.9302H19.5633C19.8223 18.9302 20.0724 18.8305 20.2583 18.6503C20.4444 18.4698 20.5508 18.223 20.5508 17.9635Z" fill="#00A3FF"/>
</g>
<defs>
<clipPath id="clip0_3710_66598">
<rect width="24" height="24" fill="white"/>
</clipPath>
</defs>
</svg>
