<svg width="24" height="24" viewBox="0 0 24 24" fill="none" xmlns="http://www.w3.org/2000/svg">
<g clip-path="url(#clip0_19475_1209)">
<rect x="8" y="8.96362" width="13" height="11" fill="#DDDFE0"/>
<path fill-rule="evenodd" clip-rule="evenodd" d="M9.89355 7.59694V4.33028H5.8123C5.18866 4.33028 4.58877 4.57043 4.14505 5.00069C3.70103 5.43127 3.4498 6.01725 3.4498 6.63028V20.6303C3.4498 20.9013 3.33886 21.1632 3.13823 21.3577C2.93729 21.5526 2.66284 21.6636 2.3748 21.6636C2.08677 21.6636 1.81232 21.5526 1.61138 21.3577C1.41075 21.1632 1.2998 20.9013 1.2998 20.6303V6.63028C1.2998 5.38679 1.60001 4.30284 2.29021 3.53207C2.97487 2.7675 4.0862 2.26361 5.8123 2.26361H21.6248C21.9128 2.26361 22.1873 2.37465 22.3882 2.56951C22.5889 2.76405 22.6998 3.02592 22.6998 3.29694C22.6998 3.56797 22.5889 3.82983 22.3882 4.02438C22.1873 4.21924 21.9128 4.33028 21.6248 4.33028H19.2623V7.59694H19.5623C19.9756 7.59694 20.3846 7.67589 20.766 7.82906C21.1473 7.98223 21.4932 8.2065 21.7841 8.48863C22.0751 8.77073 22.3053 9.10514 22.4623 9.47251C22.6192 9.83986 22.6998 10.2332 22.6998 10.6303V17.9636C22.6998 18.3607 22.6192 18.754 22.4623 19.1214C22.3053 19.4887 22.0751 19.8232 21.7841 20.1053C21.4932 20.3874 21.1473 20.6117 20.766 20.7648C20.3846 20.918 19.9756 20.9969 19.5623 20.9969H9.59355C8.75851 20.9969 7.95946 20.6752 7.37172 20.1053C6.7843 19.5356 6.45605 18.7651 6.45605 17.9636V10.6303C6.45605 9.82882 6.7843 9.05825 7.37172 8.48863C7.95946 7.9187 8.75851 7.59694 9.59355 7.59694H9.89355ZM17.1123 4.33028H12.0436V7.59694H17.1123V4.33028ZM20.5498 17.9636V10.6303C20.5498 10.3709 20.4435 10.124 20.2573 9.9435C20.0714 9.76328 19.8213 9.66361 19.5623 9.66361H9.59355C9.33458 9.66361 9.08443 9.76328 8.89857 9.9435C8.71241 10.124 8.60605 10.3709 8.60605 10.6303V17.9636C8.60605 18.223 8.71241 18.4699 8.89857 18.6504C9.08442 18.8306 9.33458 18.9303 9.59355 18.9303H19.5623C19.8213 18.9303 20.0714 18.8306 20.2573 18.6504C20.4435 18.4699 20.5498 18.223 20.5498 17.9636Z" fill="#BABEC1"/>
</g>
<defs>
<clipPath id="clip0_19475_1209">
<rect width="24" height="24" fill="white"/>
</clipPath>
</defs>
</svg>
