<svg width="24" height="24" viewBox="0 0 24 24" fill="none" xmlns="http://www.w3.org/2000/svg">
<path d="M22.3469 5.09061C21.0063 4.54061 19.6656 4.29999 18.325 4.29999C14.0969 4.29999 9.86875 6.46561 5.64062 6.46561C4.575 6.46561 3.50938 6.32811 2.44375 5.98436C2.34063 5.94999 2.20312 5.94999 2.1 5.91561C1.51562 5.91561 1 6.39686 1 7.01561V17.9469C1 18.3594 1.24062 18.7719 1.61875 18.9437C2.95938 19.4937 4.3 19.7 5.64062 19.7C9.86875 19.7 14.0969 17.5687 18.325 17.5687C19.3906 17.5687 20.4562 17.7062 21.5219 18.05C21.625 18.0844 21.7625 18.0844 21.8656 18.0844C22.4844 18.0844 23 17.6375 23 17.0187V6.08749C23 5.67499 22.725 5.26249 22.3469 5.09061ZM11.5875 17.0531C9.49063 17.5687 7.53125 18.05 5.64062 18.05H5.60625C5.29688 18.05 4.74688 18.05 4.4375 17.9812C4.09375 17.3281 3.30312 16.5375 2.65 16.2281V9.45624C3.2 9.18124 3.8875 8.56249 4.23125 8.04686C4.60938 8.08124 5.22813 8.11561 5.60625 8.11561H5.64062C7.94375 8.11561 10.2125 7.53124 12.3781 6.98124C14.475 6.46561 16.4344 5.94999 18.325 5.94999H18.3594C18.6688 5.94999 19.2188 5.98436 19.5281 6.05311C19.8719 6.70624 20.6625 7.49686 21.35 7.80624V14.5781C20.7656 14.8531 20.0781 15.4719 19.7344 15.9875C19.3563 15.9531 18.7375 15.9187 18.3594 15.9187H18.325C16.0219 15.9187 13.7531 16.5031 11.5875 17.0531Z" fill="#00A3FF"/>
<path d="M19.734 15.9875C20.0777 15.4719 20.7652 14.8531 21.3496 14.5781V7.80626C20.6621 7.49689 19.8715 6.70626 19.5277 6.05314C19.2184 5.98439 18.6684 5.95001 18.359 5.95001H18.3246C16.434 5.95001 14.4746 6.46564 12.3777 6.98126C10.2121 7.53126 7.94336 8.11564 5.64023 8.11564H5.60586C5.22773 8.11564 4.60898 8.08126 4.23086 8.04689C3.88711 8.56251 3.19961 9.18126 2.61523 9.45626V16.2281C3.30273 16.5375 4.09336 17.3281 4.43711 17.9813C4.74648 18.05 5.29648 18.05 5.60586 18.05H5.64023C7.53086 18.05 9.49023 17.5688 11.5871 17.0531C13.7527 16.5031 16.0215 15.9188 18.3246 15.9188H18.359C18.7371 15.9188 19.3559 15.9531 19.734 15.9875ZM11.9996 15.3C10.4527 15.3 9.24961 13.8219 9.24961 12C9.24961 10.1781 10.4527 8.70001 11.9996 8.70001C13.5121 8.70001 14.7496 10.1781 14.7496 12C14.7496 13.8219 13.5121 15.3 11.9996 15.3Z" fill="#DDDFE0"/>
</svg>
