<svg width="400" height="114" viewBox="0 0 400 114" fill="none" xmlns="http://www.w3.org/2000/svg">
<path d="M254.342 28.1883L247.638 30.5106C246.594 30.8723 246.039 32.0173 246.398 33.0679L261.772 77.9876C262.132 79.0382 263.27 79.5966 264.314 79.2349L271.018 76.9126C272.062 76.5508 272.617 75.4059 272.257 74.3553L256.884 29.4355C256.524 28.3849 255.386 27.8265 254.342 28.1883Z" fill="#1E88E5"/>
<path d="M235.694 78.2806C236.24 79.8352 237.921 80.6583 239.466 80.1096L257.782 73.7538L255.873 68.1297L237.558 74.4854C236.012 75.0341 235.194 76.7259 235.74 78.2806H235.694Z" fill="#1E88E5"/>
<path d="M245.738 38.5914L227.422 44.9471C225.877 45.4958 225.059 47.1876 225.605 48.7423C226.15 50.2969 227.831 51.1199 229.377 50.5712L247.692 44.2155L245.784 38.5914H245.738Z" fill="#1E88E5"/>
<path d="M271.144 24.235L259.054 28.4417L274.416 73.3434L286.505 69.1368C298.822 64.8844 305.366 51.3498 301.139 38.9584C296.913 26.567 283.46 19.9826 271.144 24.235Z" fill="#1E88E5"/>
<path d="M308.258 29.9165L300.609 32.5677L304.666 44.413L312.314 41.7618L308.258 29.9165Z" fill="#1E88E5"/>
<path d="M163.541 54.2278L156.838 56.5501C155.793 56.9119 155.238 58.0568 155.598 59.1074L170.971 104.027C171.331 105.078 172.469 105.636 173.513 105.274L180.217 102.952C181.261 102.59 181.816 101.445 181.457 100.395L166.083 55.4751C165.724 54.4245 164.586 53.8661 163.541 54.2278Z" fill="#1E88E5"/>
<path d="M141.389 64.2895C129.072 68.5419 122.528 82.0764 126.754 94.4679C130.981 106.859 144.434 113.444 156.75 109.191L168.839 104.985L153.478 60.0828L141.389 64.2895Z" fill="#1E88E5"/>
<path d="M123.202 88.9828L115.553 91.6326L119.607 103.479L127.256 100.829L123.202 88.9828Z" fill="#1E88E5"/>
<path d="M113.848 93.4518C113.848 93.4576 113.844 93.4628 113.839 93.4646L110.038 94.7691C110.002 94.7814 109.967 94.794 109.932 94.8068C109.783 94.8605 109.329 95.0226 108.667 95.2448L107.03 95.7934C102.44 97.3481 93.0324 100.32 83.1247 102.103C75.2622 103.521 68.6722 103.887 63.582 103.247C58.2646 102.561 54.8105 100.823 53.3107 98.0797C48.9022 90.0321 52.1745 80.7043 55.6286 70.8277C59.0826 60.9054 62.673 50.6174 58.719 40.6036C57.0375 36.3055 54.0379 32.3274 50.1293 29.0353C46.1299 25.6973 41.2669 23.2282 35.995 21.8107C29.3167 20.0335 17.0425 18.8726 2.4251 26.7043C0.905039 27.5187 0 29.1318 0 30.8563C0 34.8886 4.68747 37.2718 8.28115 35.4428C16.8311 31.0914 25.4703 29.811 33.359 31.9159C40.767 33.8821 46.8116 38.6832 49.084 44.4445C51.6291 50.846 48.8113 58.8478 45.8572 67.3526C41.9941 78.418 37.6311 90.9466 44.2211 103.064C48.1751 110.288 56.4466 113.946 68.854 113.946C73.626 113.946 79.0344 113.397 85.079 112.3C93.396 110.791 101.168 108.596 106.531 106.905L107.258 106.676C110.984 105.487 113.393 104.573 113.62 104.481L115.831 103.693C116.596 103.42 116.999 102.583 116.737 101.814L113.874 93.4474C113.869 93.4328 113.848 93.4364 113.848 93.4518Z" fill="#1E88E5"/>
<path d="M375.794 6.12507C375.794 6.15318 375.778 6.17879 375.752 6.19091C356.881 15.2078 336.563 22.2925 323.741 26.3882L311.25 30.1634C310.919 30.2636 310.742 30.6237 310.865 30.9474C310.898 31.0647 310.937 31.1819 310.973 31.2836C311.048 31.4912 311.128 31.6967 311.198 31.9055C312.754 36.5074 317.718 39.0063 322.342 37.5153L323.286 37.2106C335.071 33.7106 357.867 26.2961 380.253 15.6119C385.003 13.329 389.984 11.8255 395.004 11.0624C397.79 10.6386 400 8.33999 400 5.52121C400 2.50752 397.488 0.0760647 394.501 0.474541C388.134 1.32383 381.835 3.20684 375.835 6.05917C375.81 6.07126 375.794 6.09692 375.794 6.12507Z" fill="#1E88E5"/>
</svg>
