<svg width="368" height="142" viewBox="0 0 368 142" fill="none" xmlns="http://www.w3.org/2000/svg">
<path fill-rule="evenodd" clip-rule="evenodd" d="M103.621 88.9451V110.986H87.5368V142H59.4626V110.986H1.36472L0 93.919L59.1702 0H87.5368V88.9451H103.621ZM57.3181 40.4739L59.4626 36.8835V88.9451H27.8792L57.3181 40.4739Z" fill="#1E88E5"/>
<path fill-rule="evenodd" clip-rule="evenodd" d="M368 88.9451V110.986H351.916V142H323.842V110.986H265.744L264.379 93.919L323.549 0H351.916V88.9451H368ZM321.697 40.4739L323.842 36.8835V88.9451H292.258L321.697 40.4739Z" fill="#1E88E5"/>
<path fill-rule="evenodd" clip-rule="evenodd" d="M232.293 99.1071C249.249 75.2534 246.76 42.4686 225.874 21.5857C214.529 10.242 199.402 3.99473 183.289 3.99473C167.176 3.99473 152.049 10.242 140.704 21.5857C129.358 32.9295 123.11 48.0545 123.11 64.1659C123.11 80.2773 129.358 95.4023 140.704 106.746C152.049 118.09 167.176 124.337 183.289 124.337C195.705 124.337 207.978 120.479 218.109 113.164L242.181 137.248C246.08 141.148 252.4 141.148 256.298 137.248C260.196 133.348 260.196 127.024 256.298 123.124L232.293 99.1071ZM219.935 64.4149C219.935 84.5468 203.623 100.867 183.501 100.867C163.379 100.867 147.067 84.5468 147.067 64.4149C147.067 44.2831 163.379 27.9631 183.501 27.9631C203.623 27.9631 219.935 44.2831 219.935 64.4149Z" fill="#1E88E5"/>
</svg>
